# xmcd
#
# Track frame offsets:
#	150
#	12782
#	23601
#	35079
#	43230
#	51770
#	61720
#	72825
#	83730
#	95732
#	105482
#	115263
#	125377
#
# Disc length: 1810 seconds
#
# Revision: 0
# Processed by: cddbd v1.5.2PL0 Copyright (c) Steve Scherf et al.
# Submitted via: EasyCDDAExtractor 10.0.2.1
#
DISCID=a307100d
DTITLE=Johnny Cash - Walk The Line - Best Of CD (2 von 2)
DYEAR=2006
DGENRE=Country
TTITLE0=Ring Of Fire
TTITLE1=Cold Cold Heart
TTITLE2=Thanks A Lot
TTITLE3=Guess Things Happen That Way
TTITLE4=I Forgot To Remeber To Forgot
TTITLE5=Hey Porter
TTITLE6=I Just Thought You'd Like To Know
TTITLE7=The Ways Of The Woman In Love
TTITLE8=Port Of Lonely Hearts
TTITLE9=Just About Time
TTITLE10=Rock Island Line
TTITLE11=I Could Never Be Ashamed Of You
TTITLE12=Straight A's In Love
EXTD=
EXTT0=
EXTT1=
EXTT2=
EXTT3=
EXTT4=
EXTT5=
EXTT6=
EXTT7=
EXTT8=
EXTT9=
EXTT10=
EXTT11=
EXTT12=
PLAYORDER=
